<svg width="84" height="34" viewBox="0 0 84 34" fill="none" xmlns="http://www.w3.org/2000/svg">
<g clipPath="url(#clip0_6036_15131)">
<path d="M43.2273 0.548318C46.1991 0.447021 49.1903 0.889649 51.9932 1.87455C56.2098 3.34035 59.9784 6.02656 62.736 9.50611C63.949 11.0326 64.965 12.7106 65.7613 14.4859C65.9024 14.7813 66.0112 15.1133 65.9356 15.4424C65.843 15.995 65.3539 16.4518 64.7913 16.507C64.2071 16.5916 63.6033 16.2306 63.3949 15.6854C61.8115 11.9957 59.1091 8.79062 55.7382 6.57205C53.6542 5.19307 51.3171 4.1889 48.8754 3.62671C45.7267 2.8974 42.4116 2.89739 39.2623 3.62449C34.7656 4.64988 30.6483 7.20402 27.7444 10.753C26.5131 12.2484 25.4965 13.9153 24.7301 15.6887C24.5642 16.1008 24.1832 16.4238 23.7385 16.4961C23.3097 16.5781 22.8429 16.4315 22.544 16.1152C22.1915 15.7655 22.0762 15.2065 22.2579 14.7475C24.3672 9.80926 28.2728 5.66079 33.0747 3.19149C36.2023 1.5705 39.7009 0.66632 43.2273 0.548318Z" fill="#333333"/>
<path d="M39.3004 15.7536C39.2826 15.4971 39.5277 15.3052 39.7705 15.2991C40.086 15.2907 40.4025 15.2933 40.7186 15.2978C40.9384 15.3052 41.1948 15.4502 41.1939 15.6945C41.2052 18.5639 41.1871 21.4343 41.2036 24.3054C42.3777 23.0126 43.5619 21.7269 44.7401 20.4379C44.9722 20.2113 45.1556 19.868 45.5166 19.8384C46.0029 19.8185 46.4904 19.8304 46.9773 19.831C47.1649 19.8143 47.3743 19.9847 47.3084 20.183C47.2315 20.336 47.0903 20.4411 46.975 20.5626C45.701 21.8233 44.422 23.0795 43.1544 24.3456C44.3789 25.7297 45.5864 27.128 46.8053 28.5172C46.9621 28.7149 47.1584 28.8827 47.2899 29.1006C47.3863 29.271 47.2266 29.4783 47.0422 29.4864C46.6374 29.5089 46.2317 29.4864 45.826 29.496C45.615 29.4912 45.3868 29.5217 45.1952 29.414C44.9933 29.2993 44.8707 29.0942 44.7261 28.9216C43.5505 27.4555 42.3825 25.9837 41.2026 24.5201C41.1906 25.9634 41.199 27.406 41.198 28.8483C41.1936 29.0148 41.228 29.2154 41.0815 29.3369C40.8484 29.5597 40.5015 29.4815 40.2107 29.496C39.9526 29.4873 39.6507 29.5433 39.441 29.3546C39.3242 29.2646 39.2936 29.1109 39.2982 28.9743C39.3014 24.5668 39.2968 20.1598 39.3004 15.7536Z" fill="#333333"/>
<path d="M33.9479 19.8058C34.5374 19.6181 35.2019 19.5824 35.7793 19.8299C35.9819 19.9241 36.2172 20.125 36.1257 20.3725C36.0332 20.6833 35.9543 20.9976 35.844 21.303C35.7624 21.5222 35.5057 21.6036 35.2895 21.5608C34.8032 21.4782 34.3257 21.3191 33.8272 21.3352C33.4792 21.3271 33.1581 21.5119 32.9202 21.7515C32.5362 22.1233 32.3375 22.6434 32.2483 23.1594C32.1775 23.5322 32.1977 23.9131 32.1944 24.2898C32.1944 25.8729 32.195 27.457 32.1941 29.0401C32.2168 29.3004 31.9448 29.4772 31.7075 29.4862C31.3816 29.4907 31.0563 29.4949 30.7307 29.4836C30.4954 29.4714 30.2306 29.3014 30.2611 29.0391C30.2597 26.1076 30.2578 23.177 30.2617 20.2455C30.2416 19.954 30.5678 19.7955 30.8237 19.8228C31.1447 19.8437 31.5828 19.7242 31.7916 20.044C31.95 20.4149 32.0253 20.8155 32.174 21.1896C32.6216 20.5814 33.215 20.0452 33.9479 19.8058Z" fill="#333333"/>
<path d="M0.715576 20.0296C0.80614 19.9267 0.911961 19.8155 1.0629 19.8261C1.50501 19.8219 1.94842 19.8122 2.3902 19.8325C2.61451 19.8389 2.76901 20.0341 2.8018 20.2407C3.23644 21.991 3.6633 23.7438 4.09599 25.4946C4.22291 26.0353 4.37742 26.5705 4.4602 27.1205C4.54556 27.6145 4.56245 28.116 4.64359 28.611C4.75526 27.9045 4.85524 27.1934 5.04773 26.5033C5.61351 24.4136 6.17897 22.3243 6.7454 20.2353C6.78955 19.9971 7.01579 19.8277 7.25632 19.8277C7.74842 19.8155 8.2415 19.8239 8.73359 19.8239C8.9975 19.8116 9.27994 19.9643 9.34351 20.2321C9.76615 21.7554 10.1836 23.2815 10.6046 24.8061C10.8601 25.7936 11.1947 26.7643 11.3392 27.7775C11.3791 28.0565 11.4181 28.3362 11.4761 28.6132C11.6349 27.0215 12.0484 25.4728 12.3887 23.9141C12.6694 22.6741 12.944 21.4327 13.228 20.1925C13.2699 19.9434 13.5361 19.8181 13.7705 19.8251C14.1685 19.8229 14.5671 19.8116 14.9644 19.8316C15.2004 19.8383 15.336 20.0967 15.2529 20.3051C14.4544 23.2228 13.6588 26.1423 12.86 29.06C12.8171 29.294 12.6113 29.4766 12.3701 29.4805C11.7534 29.5004 11.1354 29.4853 10.5186 29.4885C10.2976 29.502 10.0638 29.3847 10.0248 29.1542C9.47273 27.1478 8.9316 25.1378 8.38465 23.1299C8.18664 22.4313 8.10646 21.7072 8.02336 20.9887C7.92177 21.6284 7.87145 22.2787 7.69941 22.9071C7.13947 24.9746 6.57628 27.043 6.01504 29.1108C5.95175 29.4458 5.56515 29.5126 5.27754 29.4908C4.70397 29.4805 4.1304 29.5039 3.55747 29.4805C3.3533 29.4811 3.19587 29.3236 3.15919 29.1327C2.35418 26.2266 1.55175 23.3191 0.746089 20.4137C0.718173 20.2867 0.721744 20.1572 0.715576 20.0296Z" fill="#333333"/>
<path d="M73.0502 19.8322C73.4689 19.8252 73.8893 19.8235 74.308 19.8322C74.5628 19.8358 74.8024 20.0083 74.8826 20.2494C75.6058 22.1208 76.3238 23.9958 77.046 25.8682C77.1969 26.2481 77.3025 26.6444 77.37 27.0469C77.6686 25.9363 78.0662 24.8556 78.4152 23.7595C78.8037 22.5744 79.1926 21.389 79.5828 20.2034C79.6406 19.9971 79.8392 19.8563 80.0502 19.839C80.3921 19.8139 80.7361 19.8358 81.0785 19.8267C81.2789 19.829 81.5175 19.8058 81.67 19.965C81.769 20.0479 81.7479 20.1857 81.7067 20.2935C80.5511 23.5577 79.3988 26.8235 78.2448 30.0886C78.0442 30.6325 77.89 31.2018 77.5671 31.691C77.1038 32.4361 76.353 32.9726 75.5279 33.2628C75.2396 33.3512 74.942 33.5473 74.6319 33.4374C74.4119 33.3818 74.3275 33.1551 74.21 32.9886C74.1256 32.8376 73.9698 32.6977 74.0022 32.5097C74.0175 32.3233 74.1684 32.1715 74.3463 32.1217C74.6943 32.0028 75.0481 31.8716 75.3299 31.6283C76.0148 31.0545 76.4384 30.206 76.5997 29.3422C76.4903 28.9588 76.2881 28.6062 76.1413 28.2349C75.0394 25.6988 73.9373 23.1617 72.8327 20.6265C72.7661 20.4606 72.6681 20.3024 72.6493 20.1225C72.6519 19.9248 72.8807 19.838 73.0502 19.8322Z" fill="#333333"/>
<path d="M21.6689 21.058C21.0677 21.1686 20.5194 21.5392 20.2143 22.067C19.7044 22.9229 19.6457 23.9557 19.6687 24.9265C19.705 25.8053 19.8475 26.7426 20.4137 27.4529C20.836 27.9872 21.5299 28.2556 22.2045 28.2453C22.8533 28.2659 23.5331 28.0483 23.9729 27.5597C24.5348 26.9512 24.7153 26.1068 24.7925 25.3106C24.8266 24.5285 24.8426 23.7323 24.6377 22.9686C24.4748 22.3235 24.1307 21.6783 23.5353 21.3308C22.9812 20.9943 22.2967 20.9628 21.6689 21.058ZM21.9227 19.6661C23.0105 19.5999 24.1502 19.8236 25.048 20.4617C25.851 21.0274 26.3964 21.8992 26.6512 22.8339C26.9541 23.9499 26.9528 25.1408 26.6781 26.2627C26.4194 27.2967 25.8144 28.2716 24.9016 28.8592C23.9261 29.5002 22.7008 29.6667 21.5559 29.5301C20.5805 29.4111 19.63 28.9875 18.951 28.2758C18.1528 27.4478 17.7564 26.307 17.674 25.1794C17.5737 23.929 17.7671 22.6054 18.4696 21.5375C18.9893 20.7339 19.8154 20.1435 20.7369 19.8741C21.1212 19.7552 21.5222 19.6999 21.9227 19.6661Z" fill="#333333"/>
<path d="M54.0077 21.0081C53.4114 21.046 52.8359 21.3858 52.5697 21.9248C52.0497 22.9216 52.0391 24.0816 52.065 25.1778C52.1065 25.8939 52.1851 26.6332 52.522 27.2799C52.7499 27.7155 53.1638 28.0594 53.6532 28.1648C54.4021 28.3432 55.2835 28.1922 55.8158 27.6062C56.3287 27.0279 56.4974 26.2417 56.5763 25.4976C56.6305 24.6493 56.6338 23.7836 56.4212 22.9534C56.2751 22.3982 56.0278 21.8438 55.5837 21.458C55.1578 21.0868 54.5644 20.9437 54.0077 21.0081ZM56.5737 15.6304C56.5601 15.4054 56.7922 15.2617 56.994 15.2444C57.317 15.227 57.641 15.2353 57.9646 15.2389C58.2113 15.2366 58.4872 15.4182 58.4516 15.6895C58.4516 20.1171 58.4525 24.5438 58.4509 28.9707C58.4678 29.1992 58.2405 29.3767 58.0273 29.3905C57.7698 29.404 57.5118 29.404 57.2554 29.3863C57.0746 29.3751 56.8993 29.2603 56.8377 29.089C56.7409 28.8013 56.6906 28.5024 56.6169 28.2099C56.2599 28.6894 55.7995 29.1137 55.2276 29.3243C54.4118 29.6216 53.5039 29.6264 52.6655 29.4239C51.8232 29.2233 51.0896 28.6502 50.6831 27.8958C50.0453 26.7441 49.9697 25.3892 50.0096 24.1045C50.0323 23.0068 50.244 21.8486 50.9662 20.9775C51.5109 20.2392 52.4035 19.8155 53.305 19.7046C54.1441 19.5831 55.0539 19.7229 55.7486 20.2263C56.0771 20.4552 56.34 20.7621 56.5747 21.083C56.5682 19.2659 56.5698 17.4481 56.5737 15.6304Z" fill="#333333"/>
<path d="M65.6029 21.0637C65.3036 21.1241 65.0137 21.243 64.7719 21.4285C64.2883 21.8013 64.048 22.3938 63.9198 22.9691C63.7332 23.882 63.7357 24.8248 63.8322 25.748C63.9225 26.4262 64.0945 27.1501 64.5966 27.6515C65.0057 28.0768 65.6224 28.2327 66.1995 28.2047C66.8202 28.2269 67.4661 27.998 67.8664 27.5152C68.3669 26.9157 68.5081 26.1183 68.5811 25.3671C68.6276 24.4837 68.6282 23.5792 68.3776 22.7216C68.2192 22.1874 67.9296 21.6561 67.4411 21.3517C66.903 21.002 66.2222 20.9698 65.6029 21.0637ZM64.7719 19.8512C65.6331 19.6149 66.5549 19.6011 67.4249 19.7982C68.2332 19.9837 68.9901 20.4329 69.4868 21.0983C70.012 21.7804 70.2772 22.6262 70.3875 23.469C70.4833 24.1189 70.4557 24.7772 70.4567 25.432C70.4567 26.6136 70.4567 27.7955 70.4534 28.9768C70.4665 29.1208 70.3746 29.2484 70.2561 29.3233C70.0558 29.4455 69.8075 29.3915 69.5841 29.4053C69.3336 29.4033 69.0041 29.4252 68.8677 29.1671C68.7347 28.8636 68.7071 28.5252 68.6217 28.206C68.2857 28.6104 67.9378 29.0276 67.4515 29.2613C66.7107 29.6239 65.8447 29.6026 65.052 29.4493C64.0821 29.2597 63.1888 28.6917 62.6403 27.8733C61.9869 26.9202 61.7499 25.7438 61.7589 24.6068C61.7509 23.4985 61.9699 22.3526 62.5922 21.415C63.0898 20.6484 63.8883 20.0933 64.7719 19.8512Z" fill="#333333"/>
<path d="M82.117 27.1106C81.6246 27.2896 81.3146 27.8521 81.4403 28.36C81.5685 28.9563 82.2689 29.3632 82.8533 29.1427C83.3921 28.9797 83.732 28.3713 83.5648 27.8348C83.418 27.2311 82.6948 26.8743 82.117 27.1106ZM82.1853 26.8557C82.4774 26.81 82.7948 26.8068 83.0659 26.9409C83.5275 27.1485 83.8593 27.6393 83.8093 28.1498C83.8476 28.7586 83.3304 29.3028 82.7403 29.4008C82.0758 29.5407 81.3608 29.064 81.2254 28.4076C81.0507 27.747 81.5143 27.0036 82.1853 26.8557Z" fill="#333333"/>
<path d="M82.325 27.5976C82.324 27.7358 82.3234 27.874 82.325 28.0132C82.4474 28.0058 82.5733 28.0132 82.6941 27.9801C82.8076 27.9335 82.7964 27.7905 82.7655 27.6947C82.648 27.5809 82.4733 27.6105 82.325 27.5976ZM81.9556 27.3726C82.3088 27.3925 82.7048 27.2938 83.0229 27.4889C83.2793 27.6796 83.155 28.0942 82.8655 28.1826C82.9489 28.4012 83.0651 28.6043 83.1712 28.8126C83.0375 28.8152 82.906 28.8174 82.7746 28.8197C82.6795 28.6268 82.5863 28.4317 82.4955 28.2373C82.4376 28.2356 82.3809 28.235 82.325 28.234C82.324 28.4285 82.324 28.623 82.324 28.8174C82.199 28.8158 82.0767 28.8142 81.954 28.8133C81.955 28.3327 81.9533 27.8522 81.9556 27.3726Z" fill="#333333"/>
</g>
<defs>
<clipPath id="clip0_6036_15131">
<rect width="83.0984" height="32.9399" fill="white" transform="translate(0.71582 0.530029)"/>
</clipPath>
</defs>
</svg>
