<svg width="102" height="40" viewBox="0 0 102 40" fill="none" xmlns="http://www.w3.org/2000/svg">
<path d="M30.3278 26.247L30.2339 25.4546L30.3278 24.499L30.0697 24.2892C29.882 24.4057 29.6943 24.499 29.6473 24.5223C29.53 24.5922 28.5445 25.2215 28.5445 25.2215L27.7701 25.0117L27.3478 24.8952L27.3243 24.5922C27.3243 24.5922 27.2304 22.6577 27.2539 22.5878C27.2539 22.5178 26.9723 20.5367 26.9723 20.5367L26.8081 19.4646L26.9489 18.0894L27.2304 16.2715C27.207 16.2248 27.2304 15.5256 27.2304 15.5256C27.2304 15.5256 27.207 14.4069 27.207 14.3602C27.207 14.3136 27.2774 13.6843 27.2774 13.6843L27.5824 12.8919L27.6528 12.5889C27.6528 12.5889 27.6528 12.5656 27.6293 12.5423C27.5589 12.4957 27.3008 12.3325 27.0193 12.4257C26.8315 12.4957 26.6204 12.5889 26.5734 12.6821C26.5265 12.7753 26.4092 13.5212 26.4092 13.5212L26.3388 14.57L26.198 15.782C26.198 15.782 26.1276 16.1549 26.1276 16.2015C26.1041 16.3181 25.9164 16.2715 25.9164 16.2715C25.9164 16.2715 25.8695 16.0384 25.8929 15.9218C25.8929 15.8053 25.9633 15.2459 25.9633 15.2459C25.9633 15.2459 25.9633 15.2226 25.9633 15.1993C25.9633 15.1294 25.9164 14.8264 25.8695 14.6632C25.8225 14.5001 25.6583 14.4535 25.494 14.4302C25.2594 14.4069 25.0247 14.4768 25.0247 14.4768C24.8605 14.5234 24.7901 14.6166 24.7197 14.6865C24.6728 14.7332 24.6493 14.8963 24.6493 15.0129C24.6493 15.0129 24.7197 15.7121 24.7432 15.8286C24.7901 15.9685 24.8605 16.2248 24.8605 16.2248C24.8605 16.2248 24.8839 16.4812 24.6493 16.3414L24.6258 16.3181L24.3443 15.782L24.3208 15.7354V15.6888L24.2035 15.0362V14.9895V14.4302C24.2269 14.3602 24.3677 13.6144 24.5554 13.3114L24.7901 13.0084C24.8605 12.9385 25.3063 12.4257 25.4706 12.1693C25.494 12.1227 25.5175 12.0994 25.5175 12.0761C25.5644 11.913 26.3388 11.4934 26.6438 11.2604C26.9489 11.0273 27.1835 10.8874 27.3243 10.8641C27.4651 10.8175 27.6997 10.7476 27.7936 10.701C27.8875 10.6544 28.0517 10.6078 28.0752 10.5844C28.0752 10.5611 27.9813 10.5378 27.9813 10.5378L27.3712 10.4679C27.3712 10.4679 27.1366 10.4213 27.0897 10.3514C27.0427 10.2814 26.6907 10.095 26.6204 10.0251C26.5265 9.95514 26.1745 9.97845 26.0337 10.0484C25.8695 10.1183 25.5644 10.1882 25.4471 10.2581C25.3298 10.3281 25.0013 10.5378 24.9309 10.5611C24.837 10.6078 24.8136 10.6078 24.8136 10.6078L24.7432 10.5145C24.7432 10.5145 24.8605 10.3048 24.9074 10.2348C24.9309 10.1882 25.1421 9.69876 25.1421 9.69876C25.1421 9.69876 25.2594 9.44238 25.3532 9.06946C25.4471 8.69655 25.0717 8.27701 24.7666 8.11386C24.485 7.9274 23.4995 8.02063 23.2883 8.04394C23.0772 8.06724 22.2324 8.2304 22.162 8.2537C22.0916 8.27701 21.0826 8.58001 21.0122 8.60332C20.9888 8.60332 20.7541 8.69655 20.5429 8.76647C20.5429 8.76647 19.6982 9.20931 19.487 9.34915C19.2758 9.5123 18.7127 9.93184 18.3842 10.0484C18.0557 10.1649 18.0557 10.1649 18.0557 10.1649L18.173 10.2814C18.173 10.2814 18.5719 10.3514 18.8535 10.398C19.135 10.4446 19.7217 10.398 19.9329 10.3747C20.191 10.3281 20.5195 10.0717 20.5195 10.0717C20.6133 10.0251 20.6837 9.97845 20.7541 9.95514L20.8011 9.93184C20.9653 9.86192 21.2469 9.86192 21.3642 9.83861C21.3877 9.83861 21.4111 9.83861 21.4111 9.83861C21.4581 9.83861 21.7162 9.95514 21.7397 10.095C21.7866 10.2348 21.7397 10.5844 21.6458 10.701C21.5754 10.8408 21.2469 11.1205 21.0826 11.1671C20.9653 11.2137 20.7307 11.307 20.5195 11.4002C20.5195 11.4002 19.7451 11.61 19.3932 11.61C19.0412 11.61 19.0412 11.61 19.0412 11.61L18.9473 11.9596C18.9473 11.9596 18.9004 12.3558 18.9943 12.5656C19.0881 12.7753 19.2524 13.1016 19.3932 13.2182C19.534 13.358 19.7451 13.358 19.7451 13.358L20.144 12.8686L20.5195 12.519L20.7072 12.4024C20.7072 12.4024 20.7776 12.3558 20.8011 12.3325C20.9418 12.2393 21.2704 12.1227 21.3408 12.1227C21.4111 12.0994 21.6223 12.0295 21.7162 12.0062C21.7397 12.0062 21.7866 12.0062 21.7866 12.0062C21.7866 12.0062 22.162 12.1227 22.162 12.4024C22.162 12.6821 22.0447 12.9152 22.0447 12.9152V13.0317L21.9978 13.1016L21.5754 13.4046C21.5754 13.4046 21.5285 13.4279 21.505 13.4513C21.4111 13.4979 21.2 13.5678 21.1061 13.5911C20.7072 13.6843 20.1675 14.1971 20.1675 14.1971C19.839 14.4535 19.534 15.0362 19.3932 15.1527C19.2758 15.2692 19.2993 15.3858 19.2993 15.3858C19.487 15.2925 20.5429 15.0129 20.5429 15.0129L21.857 14.7332C21.857 14.7332 22.4905 14.6166 22.6782 14.4535C22.866 14.3136 23.2649 14.1272 23.2649 14.1272L23.2883 15.3858L23.3118 15.479L23.5699 16.3647C23.5699 16.3647 24.1565 17.9496 24.1331 18.3458C24.1096 18.742 24.0157 20.3269 24.0157 20.3269C24.0157 20.3269 23.6638 22.0983 23.6638 22.3081C23.6638 22.5178 23.5934 23.4501 23.5934 23.4501L23.5699 23.9163V24.6854C23.5699 24.6854 23.1945 24.8719 23.0302 24.8952C22.866 24.9185 21.8335 25.4313 21.6693 25.5711C21.505 25.711 21.2469 25.7809 21.2469 25.8508C21.2704 25.9207 21.3642 26.1072 21.3642 26.1072C21.3642 26.1072 21.2 26.3403 21.3173 26.4335C21.4346 26.5267 22.5375 27.0628 22.819 27.2026C22.866 27.2259 22.8894 27.2259 22.8894 27.2259L24.0157 27.5056L24.1565 27.5289C24.1565 27.5289 24.2504 27.5289 24.2973 27.5289C24.5085 27.5056 25.0951 27.4357 25.4706 27.3891C25.5879 27.3658 25.7052 27.3658 25.7756 27.3658C25.8225 27.3658 25.846 27.3425 25.846 27.3658C25.9164 27.3891 27.4416 26.8064 27.6997 26.7365C27.9579 26.6666 28.3568 26.3403 28.3568 26.3403L29.2719 26.5966L29.3657 26.6432C29.3657 26.6432 29.7412 26.8064 30.0462 26.9929C30.1636 26.9462 30.3982 26.7598 30.3982 26.7598L30.3278 26.247ZM25.4706 24.5922L24.6024 24.5456L24.6728 22.984C24.6728 22.984 24.9074 21.6088 24.9074 21.5389C24.9074 21.469 25.0247 20.8863 25.0482 20.7232C25.0482 20.6999 25.0717 20.6766 25.0717 20.6766L25.0951 20.6532L25.2359 20.56L25.3767 20.5134H25.4236H25.4471C25.494 20.5134 25.5644 20.5367 25.6114 20.56C25.6818 20.6066 25.7991 20.9795 25.7991 20.9795L25.9633 22.0284L26.0572 23.3103L26.1276 24.6388L25.4706 24.5922Z" fill="#333333"/>
<path d="M35.8898 11.9144V20.9344H34.2238V12.264L35.8898 11.9144Z" fill="#333333"/>
<path d="M37.7901 16.528C37.7901 15.6423 37.7666 15.3627 37.7432 14.7567L39.1745 14.4304L39.2215 15.6657H39.2684C39.5969 14.7334 40.3478 14.2672 41.0517 14.2672C41.216 14.2672 41.3098 14.2905 41.4506 14.3138V15.8754C41.3098 15.8521 41.169 15.8288 40.9579 15.8288C40.1601 15.8288 39.6204 16.3416 39.4796 17.0641C39.4561 17.2039 39.4326 17.3904 39.4326 17.5769V20.9564H37.7666V16.528H37.7901Z" fill="#333333"/>
<path d="M44.2923 12.5905C44.2923 13.08 43.9404 13.4762 43.3537 13.4762C42.7906 13.4762 42.4386 13.08 42.4386 12.5905C42.4386 12.0778 42.814 11.7048 43.3772 11.7048C43.9404 11.7048 44.2923 12.1011 44.2923 12.5905ZM42.5325 20.9346V14.7581L44.1985 14.4318V20.9346H42.5325Z" fill="#333333"/>
<path d="M45.603 19.4181C45.9785 19.6512 46.6824 19.8843 47.2925 19.8843C48.0199 19.8843 48.3484 19.5813 48.3484 19.1618C48.3484 18.7189 48.0903 18.4859 47.269 18.2062C46.0019 17.7633 45.4622 17.0641 45.4622 16.3183C45.4622 15.1762 46.4243 14.2672 47.9495 14.2672C48.6769 14.2672 49.3105 14.4537 49.6859 14.6634L49.3574 15.8288C49.0758 15.6657 48.5596 15.4559 47.973 15.4559C47.3863 15.4559 47.0578 15.7356 47.0578 16.1318C47.0578 16.5513 47.3629 16.7378 48.2076 17.0408C49.3809 17.4603 49.944 18.0663 49.9675 19.0219C49.9675 20.1873 49.0289 21.0497 47.2925 21.0497C46.4947 21.0497 45.7907 20.8632 45.298 20.5835L45.603 19.4181Z" fill="#333333"/>
<path d="M50.9072 11.7741L52.5732 11.4478V15.3168H52.5967C52.8079 15.0138 53.066 14.7574 53.418 14.5709C53.7465 14.3845 54.1219 14.2679 54.5443 14.2679C55.6706 14.2679 56.8438 15.0138 56.8438 17.0881V20.9339H55.1778V17.2746C55.1778 16.319 54.8259 15.6198 53.9107 15.6198C53.2537 15.6198 52.8079 16.0393 52.6436 16.5521C52.5967 16.6919 52.5732 16.8551 52.5732 17.0415V20.9339H50.9072V11.7741Z" fill="#333333"/>
<path d="M60.9033 12.2637L62.5693 11.9374V19.5822H66.3002V20.9573H60.9268V12.2637H60.9033Z" fill="#333333"/>
<path d="M69.0462 12.5905C69.0462 13.08 68.6943 13.4762 68.1076 13.4762C67.5445 13.4762 67.1925 13.08 67.1925 12.5905C67.1925 12.0778 67.5679 11.7048 68.1311 11.7048C68.6708 11.7048 69.0228 12.1011 69.0462 12.5905ZM67.2864 20.9346V14.7581L68.9524 14.4318V20.9346H67.2864Z" fill="#333333"/>
<path d="M70.9006 20.9337V15.6429H70.0089V14.4076H70.9006V14.1279C70.9006 13.2889 71.1352 12.4498 71.6984 11.9137C72.1911 11.4476 72.8482 11.2844 73.4113 11.2844C73.8572 11.2844 74.2091 11.3543 74.4672 11.4476L74.3499 12.7062C74.1857 12.6363 73.951 12.5896 73.646 12.5896C72.8247 12.5896 72.5431 13.2656 72.5431 14.0813V14.4076H73.9745V15.6429H72.5431V20.9337H70.9006Z" fill="#333333"/>
<path d="M76.038 18.1362C76.085 19.3016 77.0001 19.8144 78.056 19.8144C78.8303 19.8144 79.37 19.6978 79.8628 19.5114L80.0974 20.6534C79.5343 20.8865 78.76 21.0497 77.7979 21.0497C75.6626 21.0497 74.4189 19.7445 74.4189 17.7633C74.4189 15.9687 75.5218 14.2672 77.6336 14.2672C79.7689 14.2672 80.4494 16.0153 80.4494 17.437C80.4494 17.74 80.426 17.9964 80.4025 18.1362H76.038ZM78.9242 16.9942C78.9477 16.3882 78.6661 15.4093 77.5632 15.4093C76.5308 15.4093 76.1084 16.3416 76.038 16.9942H78.9242Z" fill="#333333"/>
<path d="M38.072 32.1212H39.4565V28.695C39.4565 28.1124 39.3157 26.2012 37.4385 26.2012C37.0865 26.2012 36.758 26.3177 36.4529 26.4575C35.7725 26.7838 35.5847 27.1101 35.5847 27.0868V23.6606L34.2003 24.1035V32.1212H35.5847V28.6484C35.5847 28.5086 35.5847 28.3221 35.6551 28.1823C35.8429 27.6462 36.3122 27.3199 36.8753 27.3199C37.6497 27.3199 38.072 27.8793 38.072 28.8815V32.1212Z" fill="#333333"/>
<path d="M43.4458 26.2009C41.4982 26.2009 40.6066 27.8091 40.6066 29.3241C40.6066 31.1188 41.7563 32.2375 43.6101 32.2375C44.5252 32.2375 45.2057 32.0511 45.6046 31.8879L45.4169 30.9789C44.9476 31.1421 44.4313 31.2353 43.8213 31.2353C42.9296 31.2353 41.9675 30.8158 41.9441 29.6504C41.9441 29.6271 41.9441 29.6271 41.9675 29.6038C41.9675 29.6038 41.991 29.5805 42.0145 29.5805H45.9331C45.9566 29.4873 45.98 29.2775 45.98 29.0211C45.9566 26.9468 44.666 26.2009 43.4458 26.2009ZM44.5956 28.6715H41.991C41.9675 28.6715 41.9675 28.6715 41.9441 28.6482C41.9441 28.6249 41.9206 28.6249 41.9206 28.6016C41.9675 28.0422 42.343 27.1099 43.352 27.1099C43.7274 27.1099 44.009 27.2265 44.2436 27.4595C44.6425 27.8558 44.6425 28.4384 44.6425 28.6249C44.6425 28.6482 44.6191 28.6715 44.5956 28.6715Z" fill="#333333"/>
<path d="M50.0832 28.392C48.7457 28.392 47.7602 28.6716 47.197 29.231C46.845 29.5806 46.6808 30.0235 46.6808 30.5595C46.6808 31.3986 47.2909 32.261 48.4876 32.261C49.1915 32.261 49.8016 31.9813 50.2005 31.4918C50.2005 31.4685 50.224 31.4685 50.2475 31.4685H50.2944C50.3178 31.4685 50.3413 31.4918 50.3413 31.5151L50.4352 32.1211H51.6788C51.6084 31.7016 51.6084 31.1655 51.6084 30.7693V28.6483C51.6084 27.5529 51.186 26.2244 49.215 26.2244C48.1121 26.2244 47.3847 26.574 47.1501 26.7138L47.4082 27.5762C47.8306 27.3198 48.4172 27.18 48.9803 27.18C50.0832 27.18 50.2475 27.8559 50.2475 28.2754V28.3686C50.2475 28.392 50.2475 28.392 50.224 28.4153C50.224 28.4153 50.2005 28.4386 50.1771 28.4386C50.1067 28.392 50.0832 28.392 50.0832 28.392ZM48.9334 31.3054C48.3703 31.3054 48.0183 30.9558 48.0183 30.3964C48.0183 30.1167 48.1121 29.8836 48.2999 29.6972C48.6284 29.3709 49.2619 29.2077 50.1536 29.231C50.1771 29.231 50.2005 29.2543 50.2005 29.3009V30.1167C50.2005 30.1866 50.2005 30.3265 50.1536 30.4663C50.0363 30.8625 49.5904 31.3054 48.9334 31.3054Z" fill="#333333"/>
<path d="M53.0675 32.1212H54.4519V23.6606L53.0675 24.1035V32.1212Z" fill="#333333"/>
<path d="M55.4152 27.3437H56.213C56.2364 27.3437 56.2834 27.367 56.2834 27.4136V30.1872C56.2834 30.9563 56.4242 31.4691 56.7292 31.7954C57.0108 32.0984 57.4566 32.2615 57.9728 32.2615C58.3952 32.2615 58.7706 32.2149 59.0053 32.145L58.9818 31.1195C58.8176 31.1661 58.6533 31.1661 58.4656 31.1661C57.7382 31.1661 57.6443 30.5601 57.6443 30.024V27.4136C57.6443 27.3903 57.6678 27.3437 57.7147 27.3437H59.0757V26.3415H57.7147C57.6913 26.3415 57.6443 26.3182 57.6443 26.2715V24.6633L56.3068 24.9896V26.2715C56.3068 26.2948 56.2834 26.3415 56.2364 26.3415H55.4386V27.3437H55.4152Z" fill="#333333"/>
<path d="M63.9783 32.1213H65.3627V28.6952C65.3627 28.1125 65.2219 26.2013 63.3447 26.2013C62.9928 26.2013 62.6408 26.2945 62.3592 26.4576C62.0542 26.6208 61.8195 26.8306 61.6318 27.1103C61.6318 27.1336 61.6083 27.1336 61.5849 27.1336H61.5614C61.5379 27.1336 61.491 27.1103 61.491 27.0636V23.6375L60.1066 24.0803V32.098H61.491V28.6252C61.491 28.4854 61.491 28.2989 61.5614 28.1591C61.7491 27.623 62.2184 27.2967 62.7816 27.2967C63.5559 27.2967 63.9783 27.8561 63.9783 28.8583V32.1213Z" fill="#333333"/>
</svg>
