<svg width="80" height="60" viewBox="0 0 80 60" fill="none" xmlns="http://www.w3.org/2000/svg">
<path d="M9.96078 21.1495H18.7708V19.2495H9.96078V21.1495ZM50.2108 31.3295H44.0508V25.0095H50.2108C52.4108 25.0095 53.8808 26.2795 53.8808 28.1695C53.8808 30.0595 52.4108 31.3295 50.2108 31.3295ZM52.2508 32.8095C54.3608 32.2095 55.7308 30.3895 55.7308 28.1695C55.7308 25.2995 53.5108 23.3695 50.2108 23.3695H42.2008V40.3495H44.0508V32.9995H50.3208L54.3108 40.3495H56.3108L52.1508 32.8395L52.2508 32.8095ZM32.6008 40.6695C37.1408 40.6695 40.3008 37.4795 40.3008 32.9195V23.3695H38.4008V32.7895C38.4008 36.3095 36.0108 38.7595 32.6008 38.7595C29.7708 38.7595 26.7208 36.8895 26.7208 32.7895V23.3695H24.8208V32.9195C24.8208 37.4795 28.0208 40.6695 32.6008 40.6695ZM65.7808 25.5795L69.7908 34.3495H61.7508L65.7808 25.5795ZM64.8908 23.3695L57.1308 40.3495H59.1208L61.0408 35.9995H70.5108L72.4308 40.3495H74.4208L66.6608 23.3695H64.8908ZM14.3608 23.0495C9.50078 23.0495 5.55078 26.9995 5.55078 31.8595C5.55078 36.7195 9.50078 40.6695 14.3608 40.6695C19.2208 40.6695 23.1708 36.7195 23.1708 31.8595C23.1708 26.9995 19.2208 23.0495 14.3608 23.0495ZM14.3608 38.7695C10.5508 38.7695 7.45078 35.6695 7.45078 31.8595C7.45078 28.0495 10.5508 24.9495 14.3608 24.9495C18.1708 24.9495 21.2708 28.0495 21.2708 31.8595C21.2708 35.6695 18.1708 38.7695 14.3608 38.7695Z" fill="#333333"/>
</svg>
